<?xml version="1.0" encoding="UTF-8" standalone="no"?>
<svg xmlns="http://www.w3.org/2000/svg" contentStyleType="text/css" height="754px" preserveAspectRatio="none"
     style="width:876px;height:754px;background:#FFFFFF;" version="1.1" viewBox="0 0 876 754" width="876px" zoomAndPan="magnify"><defs/><g><rect fill="none" height="408.5703" style="stroke:#000000;stroke-width:1.5;" width="743" x="127" y="216.6641"/><line style="stroke:#181818;stroke-width:0.5;stroke-dasharray:5.0,5.0;" x1="26" x2="26" y1="82.6094" y2="672.5859"/><line style="stroke:#181818;stroke-width:0.5;stroke-dasharray:5.0,5.0;" x1="212" x2="212" y1="82.6094" y2="672.5859"/><line style="stroke:#181818;stroke-width:0.5;stroke-dasharray:5.0,5.0;" x1="377" x2="377" y1="82.6094" y2="672.5859"/><line style="stroke:#181818;stroke-width:0.5;stroke-dasharray:5.0,5.0;" x1="506" x2="506" y1="82.6094" y2="672.5859"/><line style="stroke:#181818;stroke-width:0.5;stroke-dasharray:5.0,5.0;" x1="611" x2="611" y1="82.6094" y2="672.5859"/><line style="stroke:#181818;stroke-width:0.5;stroke-dasharray:5.0,5.0;" x1="703" x2="703" y1="82.6094" y2="672.5859"/><line style="stroke:#181818;stroke-width:0.5;stroke-dasharray:5.0,5.0;" x1="809" x2="809" y1="82.6094" y2="672.5859"/><text fill="#000000" font-family="sans-serif" font-size="14" lengthAdjust="spacing" textLength="36" x="5" y="79.5332">Client</text><ellipse cx="26" cy="13.5" fill="#E2E2F0" rx="8" ry="8" style="stroke:#181818;stroke-width:0.5;"/><path d="M26,21.5 L26,48.5 M13,29.5 L39,29.5 M26,48.5 L13,63.5 M26,48.5 L39,63.5 " fill="none" style="stroke:#181818;stroke-width:0.5;"/><text fill="#000000" font-family="sans-serif" font-size="14" lengthAdjust="spacing" textLength="36" x="5" y="686.1191">Client</text><ellipse cx="26" cy="697.6953" fill="#E2E2F0" rx="8" ry="8" style="stroke:#181818;stroke-width:0.5;"/><path d="M26,705.6953 L26,732.6953 M13,713.6953 L39,713.6953 M26,732.6953 L13,747.6953 M26,732.6953 L39,747.6953 " fill="none" style="stroke:#181818;stroke-width:0.5;"/><rect fill="#E2E2F0" height="31.6094" rx="2.5" ry="2.5" style="stroke:#181818;stroke-width:0.5;" width="150" x="137" y="50"/><text fill="#000000" font-family="sans-serif" font-size="14" lengthAdjust="spacing" textLength="136" x="144" y="71.5332">Organizationmanager</text><rect fill="#E2E2F0" height="31.6094" rx="2.5" ry="2.5" style="stroke:#181818;stroke-width:0.5;" width="150" x="137" y="671.5859"/><text fill="#000000" font-family="sans-serif" font-size="14" lengthAdjust="spacing" textLength="136" x="144" y="693.1191">Organizationmanager</text><rect fill="#E2E2F0" height="31.6094" rx="2.5" ry="2.5" style="stroke:#181818;stroke-width:0.5;" width="118" x="318" y="50"/><text fill="#000000" font-family="sans-serif" font-size="14" lengthAdjust="spacing" textLength="104" x="325" y="71.5332">Metadataservice</text><rect fill="#E2E2F0" height="31.6094" rx="2.5" ry="2.5" style="stroke:#181818;stroke-width:0.5;" width="118" x="318" y="671.5859"/><text fill="#000000" font-family="sans-serif" font-size="14" lengthAdjust="spacing" textLength="104" x="325" y="693.1191">Metadataservice</text><rect fill="#E2E2F0" height="31.6094" rx="2.5" ry="2.5" style="stroke:#181818;stroke-width:0.5;" width="120" x="446" y="50"/><text fill="#000000" font-family="sans-serif" font-size="14" lengthAdjust="spacing" textLength="106" x="453" y="71.5332">Storagemanager</text><rect fill="#E2E2F0" height="31.6094" rx="2.5" ry="2.5" style="stroke:#181818;stroke-width:0.5;" width="120" x="446" y="671.5859"/><text fill="#000000" font-family="sans-serif" font-size="14" lengthAdjust="spacing" textLength="106" x="453" y="693.1191">Storagemanager</text><rect fill="#E2E2F0" height="31.6094" rx="2.5" ry="2.5" style="stroke:#181818;stroke-width:0.5;" width="71" x="576" y="50"/><text fill="#000000" font-family="sans-serif" font-size="14" lengthAdjust="spacing" textLength="57" x="583" y="71.5332">Keycloak</text><rect fill="#E2E2F0" height="31.6094" rx="2.5" ry="2.5" style="stroke:#181818;stroke-width:0.5;" width="71" x="576" y="671.5859"/><text fill="#000000" font-family="sans-serif" font-size="14" lengthAdjust="spacing" textLength="57" x="583" y="693.1191">Keycloak</text><rect fill="#E2E2F0" height="31.6094" rx="2.5" ry="2.5" style="stroke:#181818;stroke-width:0.5;" width="92" x="657" y="50"/><text fill="#000000" font-family="sans-serif" font-size="14" lengthAdjust="spacing" textLength="78" x="664" y="71.5332">Opensearch</text><rect fill="#E2E2F0" height="31.6094" rx="2.5" ry="2.5" style="stroke:#181818;stroke-width:0.5;" width="92" x="657" y="671.5859"/><text fill="#000000" font-family="sans-serif" font-size="14" lengthAdjust="spacing" textLength="78" x="664" y="693.1191">Opensearch</text><rect fill="#E2E2F0" height="31.6094" rx="2.5" ry="2.5" style="stroke:#181818;stroke-width:0.5;" width="101" x="759" y="50"/><text fill="#000000" font-family="sans-serif" font-size="14" lengthAdjust="spacing" textLength="87" x="766" y="71.5332">CloudStorage</text><rect fill="#E2E2F0" height="31.6094" rx="2.5" ry="2.5" style="stroke:#181818;stroke-width:0.5;" width="101" x="759" y="671.5859"/><text fill="#000000" font-family="sans-serif" font-size="14" lengthAdjust="spacing" textLength="87" x="766" y="693.1191">CloudStorage</text><polygon fill="#181818" points="200,110.9609,210,114.9609,200,118.9609,204,114.9609" style="stroke:#181818;stroke-width:1.0;"/><line style="stroke:#181818;stroke-width:1.0;" x1="26" x2="206" y1="114.9609" y2="114.9609"/><text fill="#000000" font-family="sans-serif" font-size="13" lengthAdjust="spacing" textLength="162" x="33" y="110.1045">CRUD Organization / Space</text><line style="stroke:#181818;stroke-width:1.0;stroke-dasharray:2.0,2.0;" x1="212" x2="254" y1="145.3125" y2="145.3125"/><line style="stroke:#181818;stroke-width:1.0;stroke-dasharray:2.0,2.0;" x1="254" x2="254" y1="145.3125" y2="158.3125"/><line style="stroke:#181818;stroke-width:1.0;stroke-dasharray:2.0,2.0;" x1="213" x2="254" y1="158.3125" y2="158.3125"/><polygon fill="#181818" points="223,154.3125,213,158.3125,223,162.3125,219,158.3125" style="stroke:#181818;stroke-width:1.0;"/><text fill="#000000" font-family="sans-serif" font-size="13" lengthAdjust="spacing" textLength="99" x="219" y="140.4561">Validate Request</text><line style="stroke:#181818;stroke-width:1.0;stroke-dasharray:2.0,2.0;" x1="212" x2="254" y1="188.6641" y2="188.6641"/><line style="stroke:#181818;stroke-width:1.0;stroke-dasharray:2.0,2.0;" x1="254" x2="254" y1="188.6641" y2="201.6641"/><line style="stroke:#181818;stroke-width:1.0;stroke-dasharray:2.0,2.0;" x1="213" x2="254" y1="201.6641" y2="201.6641"/><polygon fill="#181818" points="223,197.6641,213,201.6641,223,205.6641,219,201.6641" style="stroke:#181818;stroke-width:1.0;"/><text fill="#000000" font-family="sans-serif" font-size="13" lengthAdjust="spacing" textLength="77" x="219" y="183.8076">persist Entity</text><path d="M127,216.6641 L263,216.6641 L263,225.0156 L253,235.0156 L127,235.0156 L127,216.6641 " fill="#EEEEEE" style="stroke:#000000;stroke-width:1.5;"/><rect fill="none" height="408.5703" style="stroke:#000000;stroke-width:1.5;" width="743" x="127" y="216.6641"/><text fill="#000000" font-family="sans-serif" font-size="13" font-weight="bold" lengthAdjust="spacing" textLength="87" x="142" y="231.1592">send requests</text><text fill="#000000" font-family="sans-serif" font-size="11" font-weight="bold" lengthAdjust="spacing" textLength="198" x="278" y="230.083">[send in parallel and wait for return]</text><polygon fill="#181818" points="365,253.3672,375,257.3672,365,261.3672,369,257.3672" style="stroke:#181818;stroke-width:1.0;"/><line style="stroke:#181818;stroke-width:1.0;" x1="212" x2="371" y1="257.3672" y2="257.3672"/><text fill="#000000" font-family="sans-serif" font-size="13" lengthAdjust="spacing" textLength="141" x="219" y="252.5107">CRUD metadata context</text><polygon fill="#181818" points="494,283.7188,504,287.7188,494,291.7188,498,287.7188" style="stroke:#181818;stroke-width:1.0;"/><line style="stroke:#181818;stroke-width:1.0;" x1="212" x2="500" y1="287.7188" y2="287.7188"/><text fill="#000000" font-family="sans-serif" font-size="13" lengthAdjust="spacing" textLength="130" x="219" y="282.8623">CRUD storage context</text><polygon fill="#181818" points="599.5,314.0703,609.5,318.0703,599.5,322.0703,603.5,318.0703" style="stroke:#181818;stroke-width:1.0;"/><line style="stroke:#181818;stroke-width:1.0;" x1="212" x2="605.5" y1="318.0703" y2="318.0703"/><text fill="#000000" font-family="sans-serif" font-size="13" lengthAdjust="spacing" textLength="68" x="219" y="313.2139">CRUD roles</text><line style="stroke:#181818;stroke-width:1.0;stroke-dasharray:2.0,2.0;" x1="377" x2="419" y1="348.4219" y2="348.4219"/><line style="stroke:#181818;stroke-width:1.0;stroke-dasharray:2.0,2.0;" x1="419" x2="419" y1="348.4219" y2="361.4219"/><line style="stroke:#181818;stroke-width:1.0;stroke-dasharray:2.0,2.0;" x1="378" x2="419" y1="361.4219" y2="361.4219"/><polygon fill="#181818" points="388,357.4219,378,361.4219,388,365.4219,384,361.4219" style="stroke:#181818;stroke-width:1.0;"/><text fill="#000000" font-family="sans-serif" font-size="13" lengthAdjust="spacing" textLength="74" x="384" y="343.5654">context logic</text><polygon fill="#181818" points="691,387.7734,701,391.7734,691,395.7734,695,391.7734" style="stroke:#181818;stroke-width:1.0;"/><line style="stroke:#181818;stroke-width:1.0;" x1="377" x2="697" y1="391.7734" y2="391.7734"/><text fill="#000000" font-family="sans-serif" font-size="13" lengthAdjust="spacing" textLength="212" x="384" y="386.917">CRUD tenants/roles/rolesmapping/...</text><polygon fill="#181818" points="388,418.125,378,422.125,388,426.125,384,422.125" style="stroke:#181818;stroke-width:1.0;"/><line style="stroke:#181818;stroke-width:1.0;" x1="382" x2="702" y1="422.125" y2="422.125"/><text fill="#000000" font-family="sans-serif" font-size="13" lengthAdjust="spacing" textLength="58" x="394" y="417.2686">Response</text><line style="stroke:#181818;stroke-width:1.0;stroke-dasharray:2.0,2.0;" x1="506" x2="548" y1="452.4766" y2="452.4766"/><line style="stroke:#181818;stroke-width:1.0;stroke-dasharray:2.0,2.0;" x1="548" x2="548" y1="452.4766" y2="465.4766"/><line style="stroke:#181818;stroke-width:1.0;stroke-dasharray:2.0,2.0;" x1="507" x2="548" y1="465.4766" y2="465.4766"/><polygon fill="#181818" points="517,461.4766,507,465.4766,517,469.4766,513,465.4766" style="stroke:#181818;stroke-width:1.0;"/><text fill="#000000" font-family="sans-serif" font-size="13" lengthAdjust="spacing" textLength="74" x="513" y="447.6201">context logic</text><polygon fill="#181818" points="797.5,491.8281,807.5,495.8281,797.5,499.8281,801.5,495.8281" style="stroke:#181818;stroke-width:1.0;"/><line style="stroke:#181818;stroke-width:1.0;" x1="506" x2="803.5" y1="495.8281" y2="495.8281"/><text fill="#000000" font-family="sans-serif" font-size="13" lengthAdjust="spacing" textLength="83" x="513" y="490.9717">CRUD storage</text><polygon fill="#181818" points="517,522.1797,507,526.1797,517,530.1797,513,526.1797" style="stroke:#181818;stroke-width:1.0;"/><line style="stroke:#181818;stroke-width:1.0;" x1="511" x2="808.5" y1="526.1797" y2="526.1797"/><text fill="#000000" font-family="sans-serif" font-size="13" lengthAdjust="spacing" textLength="58" x="523" y="521.3232">Response</text><polygon fill="#181818" points="223,552.5313,213,556.5313,223,560.5313,219,556.5313" style="stroke:#181818;stroke-width:1.0;"/><line style="stroke:#181818;stroke-width:1.0;" x1="217" x2="610.5" y1="556.5313" y2="556.5313"/><text fill="#000000" font-family="sans-serif" font-size="13" lengthAdjust="spacing" textLength="58" x="229" y="551.6748">Response</text><polygon fill="#181818" points="223,582.8828,213,586.8828,223,590.8828,219,586.8828" style="stroke:#181818;stroke-width:1.0;"/><line style="stroke:#181818;stroke-width:1.0;" x1="217" x2="505" y1="586.8828" y2="586.8828"/><text fill="#000000" font-family="sans-serif" font-size="13" lengthAdjust="spacing" textLength="58" x="229" y="582.0264">Response</text><polygon fill="#181818" points="223,613.2344,213,617.2344,223,621.2344,219,617.2344" style="stroke:#181818;stroke-width:1.0;"/><line style="stroke:#181818;stroke-width:1.0;" x1="217" x2="376" y1="617.2344" y2="617.2344"/><text fill="#000000" font-family="sans-serif" font-size="13" lengthAdjust="spacing" textLength="58" x="229" y="612.3779">Response</text><polygon fill="#181818" points="37,650.5859,27,654.5859,37,658.5859,33,654.5859" style="stroke:#181818;stroke-width:1.0;"/><line style="stroke:#181818;stroke-width:1.0;" x1="31" x2="211" y1="654.5859" y2="654.5859"/><text fill="#000000" font-family="sans-serif" font-size="13" lengthAdjust="spacing" textLength="58" x="43" y="649.7295">Response</text><!--MD5=[9ba1385ee86cece10518e518033a4aa6]
@startuml
actor Client
Client -> Organizationmanager: CRUD Organization / Space
Organizationmanager - -> Organizationmanager: Validate Request
Organizationmanager - -> Organizationmanager: persist Entity
group send requests [send in parallel and wait for return]
    Organizationmanager -> Metadataservice: CRUD metadata context
    Organizationmanager -> Storagemanager: CRUD storage context
    Organizationmanager -> Keycloak: CRUD roles
    Metadataservice - -> Metadataservice: context logic
    Metadataservice -> Opensearch: CRUD tenants/roles/rolesmapping/...
    Opensearch -> Metadataservice : Response
    Storagemanager- -> Storagemanager: context logic
    Storagemanager -> CloudStorage: CRUD storage
    CloudStorage -> Storagemanager: Response
    Keycloak -> Organizationmanager: Response
    Storagemanager -> Organizationmanager : Response
    Metadataservice -> Organizationmanager : Response
end
Organizationmanager -> Client: Response
@enduml

PlantUML version 1.2022.12(Sun Oct 23 20:12:26 CEST 2022)
(GPL source distribution)
Java Runtime: OpenJDK Runtime Environment
JVM: OpenJDK 64-Bit Server VM
Default Encoding: Cp1252
Language: de
Country: DE
--></g></svg>